<svg xmlns="http://www.w3.org/2000/svg" viewBox="0 0 32 32" width="32" height="32">
  <rect width="32" height="32" rx="8" fill="#07090d"/>
  <g transform="translate(0 0)" fill="none" stroke="#c8f284" stroke-linecap="round">
    <path d="M16 6 C 10 6, 6 11, 6 17 C 6 23, 10 26, 16 26 C 22 26, 26 23, 26 17 C 26 11, 22 6, 16 6 Z" fill="rgba(200,242,132,0.14)" stroke-width="1.4"/>
    <path d="M7 11 C 4 10, 2.6 8, 2.6 6" stroke-width="1.2"/>
    <path d="M6.6 16 C 3.4 16, 1.4 14.2, 1 12.2" stroke-width="1.2"/>
    <path d="M25 11 C 28 10, 29.4 8, 29.4 6" stroke-width="1.2"/>
    <path d="M25.4 16 C 28.6 16, 30.6 14.2, 31 12.2" stroke-width="1.2"/>
  </g>
  <circle cx="13" cy="18" r="1.4" fill="#c8f284"/>
  <circle cx="19" cy="18" r="1.4" fill="#c8f284"/>
  <path d="M14 21.5 C 15 22.8, 17 22.8, 18 21.5" stroke="#c8f284" stroke-width="1.2" stroke-linecap="round" fill="none"/>
</svg>
